<svg width="146" height="77" viewBox="0 0 146 77" fill="none" xmlns="http://www.w3.org/2000/svg">
<path d="M3.18394 16.4531C7.4049 18.2906 26.7023 35.7446 30.5426 36.2011C33.6149 36.5664 51.6701 36.4866 60.3137 36.4011L62.0174 36.3989L51.6803 2.38343L83.0355 36.6313C96.0009 36.503 123.229 36.641 128.419 38.2197L128.604 38.2761C135.067 40.2415 143.408 42.7785 143.417 46.8146C143.426 50.8895 129.959 51.8932 98.112 52.2479C66.2651 52.6025 47.6344 52.3913 43.5432 52.3724C39.4521 52.3535 6.31588 38.5971 4.11025 37.3331C1.90461 36.0691 5.36431 35.1447 6.11675 33.8317C6.86919 32.5187 0.42501 21.2675 3.18394 16.4531Z" fill="white"/>
<path d="M69.4916 60.2656L73.739 74.3277L86.9893 60.4089L69.4916 60.2656Z" fill="white"/>
<path d="M128.419 38.2197C123.229 36.641 96.0009 36.503 83.0355 36.6313L51.6803 2.38343L62.0174 36.3989M128.419 38.2197L128.604 38.2761M128.419 38.2197C128.48 38.2384 128.542 38.2572 128.604 38.2761M63.6612 41.8079L62.0174 36.3989M62.0174 36.3989L60.3137 36.4011C51.6701 36.4866 33.6149 36.5664 30.5426 36.2011C26.7023 35.7446 7.4049 18.2906 3.18394 16.4531C0.42501 21.2675 6.86919 32.5187 6.11675 33.8317C5.36431 35.1447 1.90461 36.0691 4.11025 37.3331C6.31588 38.5971 39.4521 52.3535 43.5432 52.3724C47.6344 52.3913 66.2651 52.6025 98.112 52.2479C129.959 51.8932 143.426 50.8895 143.417 46.8146C143.408 42.7785 135.067 40.2415 128.604 38.2761M69.4916 60.2656L73.739 74.3277L86.9893 60.4089L69.4916 60.2656Z" stroke="white" stroke-width="4" stroke-linecap="round" stroke-linejoin="round"/>
</svg>
