<svg width="398" height="687" viewBox="0 0 398 687" fill="none" xmlns="http://www.w3.org/2000/svg">
<path d="M363 199V488C363 531.81 345.94 572.99 314.96 603.97C283.98 634.95 244.09 651.46 201.05 651.99H200.94C200.3 652 199.65 652 199 652C155.19 652 114.01 634.94 83.03 603.97C52.06 572.99 35 531.81 35 488V199C35 155.2 52.06 114.01 83.03 83.04C83.55 82.52 84.08 82 84.61 81.48H313.38C313.91 82 314.44 82.52 314.96 83.04C345.94 114.01 363 155.2 363 199Z" fill="white"/>
<path d="M363.01 199V488C363.01 531.81 345.95 572.99 314.96 603.97C284.48 634.46 244.09 651.46 201.06 651.99H200.95C200.31 652 199.65 652 199.01 652C198.02 652 197.03 651.99 196.04 651.97C195.28 651.96 194.53 651.94 193.77 651.92C193.42 651.91 193.07 651.9 192.72 651.88C191.85 651.85 190.99 651.81 190.12 651.76C189.18 651.71 188.24 651.66 187.31 651.59C186.13 651.51 184.96 651.41 183.79 651.31C182.97 651.23 182.14 651.15 181.32 651.06C180.35 650.95 179.38 650.84 178.41 650.72C177.44 650.6 176.48 650.47 175.51 650.33C140.62 645.36 108.4 629.33 83.04 603.97C60.19 581.11 44.91 552.7 38.47 521.77C38.36 521.26 38.26 520.75 38.16 520.24C38.03 519.58 37.9 518.93 37.78 518.27C37.66 517.62 37.54 516.96 37.43 516.3C37.31 515.63 37.2 514.97 37.1 514.31C36.99 513.65 36.89 512.98 36.79 512.32C36.69 511.65 36.6 510.99 36.51 510.32C36.42 509.65 36.33 508.99 36.25 508.32C35.99 506.23 35.77 504.13 35.6 502.02C35.55 501.43 35.5 500.84 35.46 500.25C35.31 498.2 35.19 496.15 35.12 494.08C35.1 493.42 35.08 492.76 35.06 492.1C35.03 490.74 35.01 489.37 35.01 488V199C35.01 155.2 52.07 114.01 83.04 83.04C83.56 82.52 84.08 82 84.62 81.48H313.39C313.92 82 314.45 82.52 314.96 83.04C345.95 114.01 363.01 155.2 363.01 199Z" fill="#1941B8" fill-opacity="0.2"/>
<path d="M357.12 81.48H313.38C313.91 82 314.44 82.52 314.96 83.04C345.94 114.01 363 155.2 363 199V488C363 531.81 345.94 572.99 314.96 603.97C283.98 634.95 242.81 652 199 652C198.35 652 197.71 652 197.06 651.99H196.95C153.91 651.46 113.53 634.46 83.03 603.97C52.06 572.99 35 531.81 35 488V199C35 155.2 52.06 114.01 83.03 83.04C83.55 82.52 84.08 82 84.61 81.48H40.88C16.45 114.29 2 154.96 2 199V488C2 596.8 90.2 685 199 685C253.4 685 302.65 662.95 338.3 627.3C373.95 591.65 396 542.4 396 488V199C396 154.96 381.55 114.29 357.12 81.48Z" fill="white" stroke="#1941B8" stroke-width="4" stroke-miterlimit="10"/>
<path d="M357.12 81.48H40.88C76.79 33.24 134.24 2 199 2C263.76 2 321.21 33.24 357.12 81.48Z" fill="white" stroke="#1941B8" stroke-width="4" stroke-miterlimit="10"/>
<path d="M175.01 62.84H222.99" stroke="#1941B8" stroke-width="4" stroke-miterlimit="10" stroke-linecap="round"/>
<path d="M35.1 386.28C35.1 386.28 44.03 353.89 80.33 353.89C116.63 353.89 118.86 398 118.86 398" stroke="#1941B8" stroke-width="4" stroke-linecap="round" stroke-linejoin="round"/>
<path d="M276.34 381.25C276.34 381.25 269.08 323.73 199.84 310.33C130.6 296.93 97.3 357.92 97.3 357.92" stroke="#1941B8" stroke-width="4" stroke-linecap="round" stroke-linejoin="round"/>
<path d="M362.9 341.05C362.9 341.05 347.82 308.41 304.82 308.41C261.82 308.41 247.95 332.46 247.95 332.46" stroke="#1941B8" stroke-width="4" stroke-linecap="round" stroke-linejoin="round"/>
<path d="M362.9 368.97C362.9 368.97 337.87 362.7 313.2 365.06C276.34 368.59 261.27 395.21 261.27 395.21" stroke="#1941B8" stroke-width="4" stroke-linecap="round" stroke-linejoin="round"/>
<path d="M358.82 523.8C358.82 523.8 322.65 522.29 302.95 538.54C276.29 560.53 280.01 584 280.01 584" stroke="#1941B8" stroke-width="4" stroke-linecap="round" stroke-linejoin="round"/>
<path d="M196.91 549.93C196.91 549.93 235.23 541.82 262.86 565.4C290.49 588.98 292.33 614.4 292.33 614.4" stroke="#1941B8" stroke-width="4" stroke-linecap="round" stroke-linejoin="round"/>
<path d="M84.61 81.48H313.38L322.92 91.02L334.1 105.96L345.32 124.76L353.42 143.51L358.78 161.76L362.23 182.97L363 205.09V244.51V339.54L348.11 322.29L334.02 314.37L315.25 309.09L295.16 308.84L272.69 313.94L259 320.38L251.18 328.26L248.74 331.28L235.47 322.84L218.49 314.52L189.44 308.41H170.76L154.95 312.01L139.54 318.14L126.29 326.28L115.9 334.92L108.89 342.16L99.3 354.64L97.73 356.13L89.52 354.94L76.99 353.24L58.83 357.58L48.31 365.67L42.44 372.2L38.45 378.46L36.58 379.74L35 369.21L35.48 352.99L35.73 323.52L35 199L38.42 171.15L40.97 154.88L45.83 140.15L53.36 123.43L62.51 107.99L74.09 92.71L84.61 81.48Z" fill="#1941B8"/>
<path d="M175.5 650.33C174.11 650.14 172.73 649.93 171.35 649.69Z" fill="white"/>
<path d="M175.5 650.33C174.11 650.14 172.73 649.93 171.35 649.69" stroke="#1941B8" stroke-width="4" stroke-miterlimit="10"/>
<path d="M63.5601 231.08C66.0453 231.08 68.0601 229.065 68.0601 226.58C68.0601 224.095 66.0453 222.08 63.5601 222.08C61.0748 222.08 59.0601 224.095 59.0601 226.58C59.0601 229.065 61.0748 231.08 63.5601 231.08Z" fill="white"/>
<path d="M298.37 137.93C300.855 137.93 302.87 135.915 302.87 133.43C302.87 130.945 300.855 128.93 298.37 128.93C295.885 128.93 293.87 130.945 293.87 133.43C293.87 135.915 295.885 137.93 298.37 137.93Z" fill="white"/>
<path d="M222.99 288.24C225.475 288.24 227.49 286.225 227.49 283.74C227.49 281.255 225.475 279.24 222.99 279.24C220.505 279.24 218.49 281.255 218.49 283.74C218.49 286.225 220.505 288.24 222.99 288.24Z" fill="white"/>
<path d="M337.71 229.07C340.195 229.07 342.21 227.055 342.21 224.57C342.21 222.085 340.195 220.07 337.71 220.07C335.225 220.07 333.21 222.085 333.21 224.57C333.21 227.055 335.225 229.07 337.71 229.07Z" fill="white"/>
<path d="M124.62 142.43C127.105 142.43 129.12 140.415 129.12 137.93C129.12 135.445 127.105 133.43 124.62 133.43C122.135 133.43 120.12 135.445 120.12 137.93C120.12 140.415 122.135 142.43 124.62 142.43Z" fill="white"/>
<path d="M109.48 269.03H128.25" stroke="white" stroke-width="4" stroke-miterlimit="10" stroke-linecap="round"/>
<path d="M118.87 256.71V281.35" stroke="white" stroke-width="4" stroke-miterlimit="10" stroke-linecap="round"/>
<path d="M183.83 150.25H202.6" stroke="white" stroke-width="4" stroke-miterlimit="10" stroke-linecap="round"/>
<path d="M193.22 137.93V162.58" stroke="white" stroke-width="4" stroke-miterlimit="10" stroke-linecap="round"/>
<path d="M257.1 212.25H275.87" stroke="white" stroke-width="4" stroke-miterlimit="10" stroke-linecap="round"/>
<path d="M266.48 199.93V224.57" stroke="white" stroke-width="4" stroke-miterlimit="10" stroke-linecap="round"/>
<path d="M253.36 443.73H283.96L265.98 506.33H230.24" fill="white"/>
<path d="M253.36 443.73H283.96L265.98 506.33H230.24" stroke="#1941B8" stroke-width="4" stroke-miterlimit="10"/>
<path d="M286.28 360.85L175.5 650.33C174.11 650.14 172.73 649.93 171.35 649.69C138.06 644.08 107.38 628.32 83.03 603.97C60.58 581.51 45.44 553.69 38.81 523.39C38.69 522.85 38.57 522.31 38.46 521.77L194.48 392.17L232.17 360.85H286.28V360.85Z" fill="white" stroke="#1941B8" stroke-width="4" stroke-miterlimit="10"/>
<path d="M194.48 392.17H274.05" stroke="#1941B8" stroke-width="4" stroke-miterlimit="10"/>
</svg>
