<svg width="398" height="686" viewBox="0 0 398 686" fill="none" xmlns="http://www.w3.org/2000/svg">
<path d="M363 199V488C363 531.81 345.94 572.99 314.96 603.97C283.98 634.95 244.09 651.46 201.05 651.99H200.94C200.3 652 199.65 652 199 652C155.19 652 114.01 634.94 83.03 603.97C52.06 572.99 35 531.81 35 488V199C35 155.2 52.06 114.01 83.03 83.04C83.55 82.52 84.08 82 84.61 81.48H313.38C313.91 82 314.44 82.52 314.96 83.04C345.94 114.01 363 155.2 363 199Z" fill="white"/>
<path d="M363.01 199V488C363.01 531.81 345.95 572.99 314.96 603.97C284.48 634.46 244.09 651.46 201.06 651.99H200.95C200.31 652 199.65 652 199.01 652C198.02 652 197.03 651.99 196.04 651.97C195.28 651.96 194.53 651.94 193.77 651.92C193.42 651.91 193.07 651.9 192.72 651.88C191.85 651.85 190.99 651.81 190.12 651.76C189.18 651.71 188.24 651.66 187.31 651.59C186.13 651.51 184.96 651.41 183.79 651.31C182.97 651.23 182.14 651.15 181.32 651.06C180.35 650.95 179.38 650.84 178.41 650.72C177.44 650.6 176.48 650.47 175.51 650.33C140.62 645.36 108.4 629.33 83.04 603.97C60.19 581.11 44.91 552.7 38.47 521.77C38.36 521.26 38.26 520.75 38.16 520.24C38.03 519.58 37.9 518.93 37.78 518.27C37.66 517.62 37.54 516.96 37.43 516.3C37.31 515.63 37.2 514.97 37.1 514.31C36.99 513.65 36.89 512.98 36.79 512.32C36.69 511.65 36.6 510.99 36.51 510.32C36.42 509.65 36.33 508.99 36.25 508.32C35.99 506.23 35.77 504.13 35.6 502.02C35.55 501.43 35.5 500.84 35.46 500.25C35.31 498.2 35.19 496.15 35.12 494.08C35.1 493.42 35.08 492.76 35.06 492.1C35.03 490.74 35.01 489.37 35.01 488V199C35.01 155.2 52.07 114.01 83.04 83.04C83.56 82.52 84.08 82 84.62 81.48H313.39C313.92 82 314.45 82.52 314.96 83.04C345.95 114.01 363.01 155.2 363.01 199Z" fill="#1941B8" fill-opacity="0.2"/>
<path d="M35.1 386.28C35.1 386.28 44.03 353.89 80.33 353.89C116.63 353.89 118.86 398 118.86 398" stroke="#1941B8" stroke-width="4" stroke-linecap="round" stroke-linejoin="round"/>
<path d="M276.34 381.25C276.34 381.25 269.08 323.73 199.84 310.33C130.6 296.93 97.3 357.92 97.3 357.92" stroke="#1941B8" stroke-width="4" stroke-linecap="round" stroke-linejoin="round"/>
<path d="M362.9 341.05C362.9 341.05 347.82 308.41 304.82 308.41C261.82 308.41 247.95 332.46 247.95 332.46" stroke="#1941B8" stroke-width="4" stroke-linecap="round" stroke-linejoin="round"/>
<path d="M362.9 368.97C362.9 368.97 337.87 362.7 313.2 365.06C276.34 368.59 261.27 395.21 261.27 395.21" stroke="#1941B8" stroke-width="4" stroke-linecap="round" stroke-linejoin="round"/>
<path d="M358.82 523.8C358.82 523.8 322.65 522.29 302.95 538.54C276.29 560.53 280.01 584 280.01 584" stroke="#1941B8" stroke-width="4" stroke-linecap="round" stroke-linejoin="round"/>
<path d="M196.91 549.93C196.91 549.93 235.23 541.82 262.86 565.4C290.49 588.98 292.33 614.4 292.33 614.4" stroke="#1941B8" stroke-width="4" stroke-linecap="round" stroke-linejoin="round"/>
<path d="M84.61 81.48H313.38L322.92 91.02L334.1 105.96L345.32 124.76L353.42 143.51L358.78 161.76L362.23 182.97L363 205.09V244.51V339.54L348.11 322.29L334.02 314.37L315.25 309.09L295.16 308.84L272.69 313.94L259 320.38L251.18 328.26L248.74 331.28L235.47 322.84L218.49 314.52L189.44 308.41H170.76L154.95 312.01L139.54 318.14L126.29 326.28L115.9 334.92L108.89 342.16L99.3 354.64L97.73 356.13L89.52 354.94L76.99 353.24L58.83 357.58L48.31 365.67L42.44 372.2L38.45 378.46L36.58 379.74L35 369.21L35.48 352.99L35.73 323.52L35 199L38.42 171.15L40.97 154.88L45.83 140.15L53.36 123.43L62.51 107.99L74.09 92.71L84.61 81.48Z" fill="#1941B8"/>
<path d="M53.5 191C54.8807 191 56 189.881 56 188.5C56 187.119 54.8807 186 53.5 186C52.1193 186 51 187.119 51 188.5C51 189.881 52.1193 191 53.5 191Z" fill="white"/>
<path d="M164.5 257C165.881 257 167 255.881 167 254.5C167 253.119 165.881 252 164.5 252C163.119 252 162 253.119 162 254.5C162 255.881 163.119 257 164.5 257Z" fill="white"/>
<path d="M119.5 170C120.881 170 122 168.881 122 167.5C122 166.119 120.881 165 119.5 165C118.119 165 117 166.119 117 167.5C117 168.881 118.119 170 119.5 170Z" fill="white"/>
<path d="M314.5 140C315.881 140 317 138.881 317 137.5C317 136.119 315.881 135 314.5 135C313.119 135 312 136.119 312 137.5C312 138.881 313.119 140 314.5 140Z" fill="white"/>
<path d="M258.5 285C259.881 285 261 283.881 261 282.5C261 281.119 259.881 280 258.5 280C257.119 280 256 281.119 256 282.5C256 283.881 257.119 285 258.5 285Z" fill="white"/>
<path d="M352 312C353.105 312 354 311.105 354 310C354 308.895 353.105 308 352 308C350.895 308 350 308.895 350 310C350 311.105 350.895 312 352 312Z" fill="white"/>
<path d="M62 331C63.1046 331 64 330.105 64 329C64 327.895 63.1046 327 62 327C60.8954 327 60 327.895 60 329C60 330.105 60.8954 331 62 331Z" fill="white"/>
<path d="M243.5 99C244.881 99 246 97.8807 246 96.5C246 95.1193 244.881 94 243.5 94C242.119 94 241 95.1193 241 96.5C241 97.8807 242.119 99 243.5 99Z" fill="white"/>
<path d="M337.5 219C338.881 219 340 217.881 340 216.5C340 215.119 338.881 214 337.5 214C336.119 214 335 215.119 335 216.5C335 217.881 336.119 219 337.5 219Z" fill="white"/>
<path d="M141 107C142.105 107 143 106.105 143 105C143 103.895 142.105 103 141 103C139.895 103 139 103.895 139 105C139 106.105 139.895 107 141 107Z" fill="white"/>
<path d="M80 254.741H90.27" stroke="white" stroke-width="3" stroke-miterlimit="10" stroke-linecap="round"/>
<path d="M85.1378 248V261.482" stroke="white" stroke-width="3" stroke-miterlimit="10" stroke-linecap="round"/>
<path d="M189 129.769H200" stroke="white" stroke-width="3" stroke-miterlimit="10" stroke-linecap="round"/>
<path d="M194.077 123V137.385" stroke="white" stroke-width="3" stroke-miterlimit="10" stroke-linecap="round"/>
<path d="M274 192.25H283.522" stroke="white" stroke-width="3" stroke-miterlimit="10" stroke-linecap="round"/>
<path d="M278.759 186V198.5" stroke="white" stroke-width="3" stroke-miterlimit="10" stroke-linecap="round"/>
<path d="M253.36 443.73H283.96L265.98 506.33H230.24" fill="white"/>
<path d="M253.36 443.73H283.96L265.98 506.33H230.24" stroke="#1941B8" stroke-width="4" stroke-miterlimit="10"/>
<path d="M286.28 360.85L175.5 650.33C174.11 650.14 172.73 649.93 171.35 649.69C138.06 644.08 107.38 628.32 83.03 603.97C60.58 581.51 45.44 553.69 38.81 523.39C38.69 522.85 38.57 522.31 38.46 521.77L194.48 392.17L232.17 360.85H286.28Z" fill="white" stroke="#1941B8" stroke-width="4" stroke-miterlimit="10"/>
<path d="M194.48 392.17H274.05" stroke="#1941B8" stroke-width="4" stroke-miterlimit="10"/>
<path d="M357.12 81.3636H313.38C313.91 81.8829 314.44 82.4021 314.96 82.9214C345.94 113.846 363 154.976 363 198.712V487.288C363 531.034 345.94 572.154 314.96 603.089C283.98 634.023 242.81 651.048 199 651.048C198.35 651.048 197.71 651.048 197.06 651.038H196.95C153.91 650.509 113.53 633.534 83.03 603.089C52.06 572.154 35 531.034 35 487.288V198.712C35 154.976 52.06 113.846 83.03 82.9214C83.55 82.4021 84.08 81.8829 84.61 81.3636H40.88C16.45 114.126 2 154.736 2 198.712V487.288C2 595.929 90.2 684 199 684C253.4 684 302.65 661.982 338.3 626.385C373.95 590.787 396 541.609 396 487.288V198.712C396 154.736 381.55 114.126 357.12 81.3636Z" fill="white" stroke="#1941B8" stroke-width="4" stroke-miterlimit="10"/>
<path d="M357.12 81.3636H40.88C76.79 33.1943 134.24 2 199 2C263.76 2 321.21 33.1943 357.12 81.3636Z" fill="white" stroke="#1941B8" stroke-width="4" stroke-miterlimit="10"/>
<path d="M175.01 62.7509H222.99" stroke="#1941B8" stroke-width="4" stroke-miterlimit="10" stroke-linecap="round"/>
</svg>
