<svg width="1943" height="1233" viewBox="0 0 1943 1233" fill="none" xmlns="http://www.w3.org/2000/svg">
<g filter="url(#filter0_d_331_14)">
<path d="M1928.9 121.001V1199H39C48.8 1161.5 82.9 1137 149.9 1105.2C151 1104.7 152 1104.2 153.1 1103.7C192 1085.4 238.2 1069.1 292.7 1058.2C297.3 1057.3 301.9 1056.4 306.5 1055.6C309.6 1055.1 312.7 1054.5 315.8 1054C317.9 1053.7 319.9 1053.3 322 1053C323.1 1052.8 324.3 1052.7 325.4 1052.5C331.8 1051.5 338.4 1050.7 345 1049.9C353.8 1048.9 362.8 1048 372 1047.2C381.2 1046.5 390.5 1045.9 400.1 1045.4C405.9 1045.2 411.7 1045 417.6 1044.8C423.5 1044.7 429.4 1044.6 435.4 1044.6H435.1C434.8 1044.6 434.4 1044.6 433.9 1044.5H432.9C432.7 1044.5 432.5 1044.5 432.2 1044.4H431.8C430.6 1044.3 429.2 1044.1 427.6 1043.9C427.2 1043.8 426.7 1043.8 426.3 1043.7C425.4 1043.6 424.4 1043.4 423.4 1043.2C423.1 1043.2 422.9 1043.1 422.6 1043.1C422.1 1043 421.6 1042.9 421 1042.8C420.5 1042.7 420 1042.6 419.6 1042.5C418.4 1042.2 417.1 1042 415.8 1041.7C414.7 1041.4 413.7 1041.2 412.6 1040.9C411.8 1040.7 410.9 1040.4 410.1 1040.2C408.7 1039.8 407.3 1039.3 405.8 1038.9C405.2 1038.7 404.6 1038.5 404.1 1038.3C403.5 1038.1 402.9 1037.9 402.3 1037.7C401.7 1037.5 401.1 1037.2 400.5 1037C379.3 1028.5 356.9 1010.7 360.7 973.701C367.8 906.201 474.7 938.101 476.4 938.601C475.2 937.601 416.9 891.901 507.6 834.101C538.2 814.601 585.5 808.101 634.9 808.101H639.5C640.9 808.101 642.3 808.101 643.7 808.201H644.9C646.2 808.201 647.5 808.301 648.8 808.301C650.5 808.301 652.2 808.401 653.9 808.401C654.8 808.401 655.7 808.401 656.6 808.501C660 808.601 663.4 808.801 666.7 808.901C667.5 808.901 668.2 809.001 669 809.001C670 809.001 671 809.101 672.1 809.201C673.7 809.301 675.2 809.401 676.7 809.501C678.2 809.601 679.6 809.701 681.1 809.801H681.5C685.9 810.101 690.2 810.401 694.5 810.801C695.8 810.901 697.1 811.001 698.4 811.101C774.8 818.001 841.2 834.001 841.2 834.001C841.2 834.001 792.3 754.901 861.7 672.701C931.1 590.501 1069.9 628.701 1081.5 667.001C1081.5 667.001 1077.7 633.201 1102.8 612.701C1127.6 592.401 1172.3 612.301 1173.2 612.701C1172.9 611.701 1158.4 559.501 1198.1 513.801C1237.8 468.001 1310.9 489.601 1312 489.901C1311.5 489.301 1290.8 460.301 1307.6 441.001C1324.5 421.401 1355.6 441.001 1355.6 441.001C1355.6 441.001 1333.4 358.201 1386.8 283.501C1440.2 208.701 1568.3 235.301 1568.3 235.301C1568.3 235.301 1555.3 172.001 1606 121.001H1928.9Z" fill="#D1D9F1"/>
<path d="M1606 121.001H1928.9V76C1910.8 40 1871.5 23.5 1831.5 21.5C1791.5 19.5 1772.5 25.5 1747 32C1721.5 38.5 1681 60 1665.5 69.5C1653.1 77.1 1620.67 107.667 1606 121.001Z" fill="#D1D9F1"/>
<g style="mix-blend-mode:screen" opacity="0.5">
<path d="M505.1 880.2C495.2 902.1 521.9 940 517.8 963.3C513.4 988 452.9 987.7 472 1010C476.6 1015.4 489.9 1025.5 489.5 1036.3C488.8 1057.4 451.5 1070.2 441.8 1072.4C398 1082.1 305.9 1081.7 254.2 1088.8C151.6 1102.9 61.9 1159.1 39 1199C48.8 1161.5 82.9 1137 149.9 1105.2C151 1104.7 152 1104.2 153.1 1103.7C192 1085.4 238.2 1069.1 292.7 1058.2C297.3 1057.3 301.9 1056.4 306.5 1055.6C309.6 1055.1 312.7 1054.5 315.8 1054C317.9 1053.7 319.9 1053.3 322 1053C323.1 1052.8 324.3 1052.7 325.4 1052.5C331.8 1051.5 338.4 1050.7 345 1049.9C353.8 1048.9 362.8 1048 372 1047.2C381.2 1046.5 390.5 1045.9 400.1 1045.4C405.9 1045.2 411.7 1045 417.6 1044.8C423.5 1044.7 429.5 1044.6 435.5 1044.6H435.1C434.8 1044.6 434.4 1044.6 433.9 1044.5H432.9C432.7 1044.5 432.5 1044.5 432.2 1044.4H431.8C430.6 1044.3 429.2 1044.1 427.6 1043.9C427.2 1043.8 426.7 1043.8 426.3 1043.7C425.4 1043.6 424.4 1043.4 423.4 1043.2C423.1 1043.2 422.9 1043.1 422.6 1043.1C422.1 1043 421.6 1042.9 421 1042.8C420.5 1042.7 420 1042.6 419.6 1042.5C418.4 1042.3 417.1 1042 415.8 1041.7C414.7 1041.4 413.7 1041.2 412.6 1040.9C411.8 1040.7 410.9 1040.4 410.1 1040.2C408.7 1039.8 407.3 1039.3 405.8 1038.9C405.2 1038.7 404.6 1038.5 404.1 1038.3C403.5 1038.1 402.9 1037.9 402.3 1037.7C401.7 1037.5 401.1 1037.2 400.5 1037C379.3 1028.5 356.9 1010.7 360.7 973.7C367.8 906.2 474.7 938.1 476.4 938.6C475.2 937.6 416.9 891.9 507.6 834.1C538.2 814.6 585.5 808.1 634.9 808.1H639.5C640.9 808.1 642.3 808.1 643.7 808.2H644.9C646.2 808.2 647.5 808.3 648.8 808.3C650.5 808.3 652.2 808.4 653.9 808.4C654.8 808.4 655.7 808.4 656.6 808.5C660 808.6 663.4 808.8 666.7 808.9C667.5 808.9 668.2 809 669 809C670 809 671 809.1 672.1 809.2C673.7 809.3 675.2 809.4 676.7 809.5C678.2 809.6 679.6 809.7 681.1 809.8H681.5C685.9 810.1 690.2 810.4 694.5 810.8C695.8 810.9 697.1 811 698.4 811.1C673.5 812.9 648.6 816.3 624.4 821.5C589.7 829.2 521.1 844.5 505.1 880.2V880.2Z" fill="#D1D9F1"/>
</g>
<g style="mix-blend-mode:screen" opacity="0.5">
<path d="M1928.9 121.001V244.401C1903.5 214.001 1867 180.401 1819.8 176.801C1736.5 170.401 1686.5 222.001 1676.9 267.301C1667.7 310.801 1669.4 357.101 1681.1 400.001C1682.7 405.701 1684.4 411.701 1687.5 416.801C1690.1 421.201 1698.4 425.701 1699.8 429.901C1703.6 441.701 1654.4 434.801 1649 433.001C1634.5 428.201 1621.4 418.601 1613.8 405.401C1605 390.001 1604.2 371.401 1605.5 353.801C1606.8 336.201 1610 318.501 1608.3 300.801C1607.7 294.401 1606 287.501 1600.9 283.701C1596.6 280.601 1590.9 280.401 1585.6 280.501C1546.5 281.501 1496.7 292.301 1473.7 327.401C1455.9 354.601 1454.9 396.201 1454.9 427.801C1454.9 439.601 1455.5 451.501 1457.7 463.101C1459.6 473.601 1469.6 487.701 1453.8 486.001C1433.6 483.901 1414.9 477.401 1394.6 483.101C1377.6 487.901 1364.6 499.701 1358.4 516.201C1333.9 581.401 1285 539.601 1253.5 569.201C1221.9 598.701 1267.8 648.601 1209.7 652.701C1151.6 656.801 1175.1 740.301 1112.9 734.201C1050.8 728.101 989.6 666.001 933.6 707.701C877.6 749.501 927.5 807.501 889.8 846.201C866.7 870.001 841.5 894.601 828.2 925.601C821.8 940.401 818.7 956.901 823.8 972.601C828.9 988.101 844.9 993.701 855.5 1004.5C864.6 1013.7 862.5 1017 849.6 1018C824.9 1019.8 799.6 1007.6 781.4 991.601C731.9 948.201 778.7 877.701 802.8 825.801C826.7 830.301 841.6 833.901 841.6 833.901C841.6 833.901 792.7 754.801 862.1 672.601C931.5 590.401 1070.3 628.601 1081.9 666.901C1081.9 666.901 1078.1 633.101 1103.2 612.601C1128 592.301 1172.7 612.201 1173.6 612.601C1173.3 611.601 1158.8 559.401 1198.5 513.701C1238.2 467.901 1311.3 489.501 1312.4 489.801C1311.9 489.201 1291.2 460.201 1308 440.901C1324.9 421.301 1356 440.901 1356 440.901C1356 440.901 1333.8 358.101 1387.2 283.401C1440.6 208.601 1568.7 235.201 1568.7 235.201C1568.7 235.201 1555.3 172.001 1606 121.001H1928.9Z" fill="#D1D9F1"/>
<path d="M1606 121.001H1928.9V75.5C1926.1 70 1916.6 55.6 1901 42C1881.5 25 1835 21.5 1813.5 21C1792 20.5 1744 30.5 1725.5 38C1707 45.5 1677.5 62 1657 76.5C1640.6 88.1 1616.17 111.667 1606 121.001Z" fill="#D1D9F1"/>
</g>
<g style="mix-blend-mode:screen" opacity="0.5">
<path d="M1777.3 535.801C1739.6 536.201 1703 553.901 1679.7 583.801C1668.4 598.301 1660.5 615.5 1657.1 633.6C1654.7 646.8 1656.9 660.701 1659.2 673.701C1661 684.201 1661.9 690.201 1648.1 686.701C1626.9 681.401 1605 677.1 1583.2 679.1C1561.4 681.1 1539.4 690.101 1525.8 707.201C1515.6 720.101 1512.1 736.6 1511.3 752.6C1510.6 767.2 1511.6 782 1512.4 796.6C1512.4 797.2 1512.5 797.801 1512.2 798.301C1511.6 799.401 1510.5 798.801 1509.6 798.701C1508.3 798.501 1507 798.3 1505.7 798.1C1500.8 797.4 1495.8 796.8 1490.9 796.6C1480.7 796.2 1470.6 797.501 1461.2 801.501C1445.4 808.201 1432.5 821.601 1427.1 837.901C1424.5 845.601 1423.5 853.801 1420.8 861.401C1413.7 881.401 1391 886.701 1375.8 871.001C1366.2 861.101 1363.3 846.4 1363.6 832.6C1364.6 795.4 1389.8 759.801 1428.5 755.201C1432.5 754.701 1436.7 754.501 1440.3 752.701C1451 747.201 1447.6 725.101 1448.7 715.401C1450.6 698.701 1453.2 682.001 1458.1 665.801C1467.8 634.001 1485.5 607.301 1516.9 594.801C1542.1 584.801 1579.6 578.201 1602 597.901C1602.4 553.501 1637 515.501 1677.4 501.201C1722.8 485.101 1776.2 493.601 1818.1 515.601C1828.6 521.101 1838.8 528.201 1844.4 539.001C1846.7 543.401 1854.6 563.801 1842.6 557.301C1820.5 545.501 1802.8 535.801 1777.3 535.801V535.801Z" fill="#D1D9F1"/>
</g>
<g style="mix-blend-mode:screen" opacity="0.5">
<path d="M1201.7 828.1C1201.5 828 1201.2 828 1201 827.9C1153.3 814.4 1090.4 808.5 1053.7 849.5C1035.5 869.9 1028.9 901.3 1041.3 925.6C1052.7 947.9 1082.6 958.5 1096.1 931.9C1099.5 925.2 1101.2 917.9 1103.5 910.8C1108.6 895.4 1118 885.4 1134.6 883.3C1151.8 881.1 1168.6 887.1 1185.7 887C1199.2 887 1214 882 1220.2 870C1225.4 860 1227.1 845.3 1218.5 836.6C1214.1 832.1 1207.9 829.8 1201.7 828.1Z" fill="#D1D9F1"/>
</g>
<g style="mix-blend-mode:screen" opacity="0.5">
<path d="M670.9 977.4C669.1 978.8 666.5 978.6 664.1 978.4C608.9 973.7 570.5 1019.3 556 1068C548.1 1094.5 544.7 1134.4 570.3 1152.9C576 1157.1 578.9 1159.2 582.4 1154.1C585.6 1149.3 584.1 1135 584.6 1129.1C585.3 1120.7 586.1 1112.4 587.5 1104.1C590.8 1084.7 597.2 1065.6 609.6 1050.1C626.8 1028.4 653.3 1020 680.1 1018.3C693.4 1017.4 693.3 993 698.6 982.4C706.6 966.6 717.7 952.6 726 937C727 935.2 727.8 932.9 726.5 931.3C725.4 930 723.5 930.1 721.8 930.3C699.5 933.6 679.8 950.7 673.4 972.3C673 974.1 672.4 976.1 670.9 977.4C670.9 977.3 670.9 977.4 670.9 977.4V977.4Z" fill="#D1D9F1"/>
</g>
<g style="mix-blend-mode:multiply" opacity="0.6">
<path d="M1928.9 1130.6V1199H842.6C844 1197.8 845.5 1196.7 846.9 1195.7C896.9 1160.5 958.6 1142.1 1019.7 1144.3C1040.2 1145 1061.3 1147.9 1080.9 1141.8C1100.5 1135.7 1118.3 1117.1 1114.8 1096.8C1111.8 1079.3 1094.5 1066.7 1092.3 1049.1C1136.1 1080.5 1192.4 1094 1245.7 1085.9C1299 1077.8 1348.7 1048.2 1381.3 1005.3C1382.6 1028.4 1383.9 1052.1 1392.5 1073.6C1406.8 1109.8 1440.3 1135.9 1476.9 1149.2C1513.5 1162.5 1553.1 1164.6 1592 1164.2C1672.5 1163.4 1752.6 1152.9 1832.5 1142.4C1859.4 1138.8 1886.7 1132.2 1913.7 1129.8C1919.1 1129.3 1924.2 1129.6 1928.9 1130.6V1130.6Z" fill="#D1D9F1"/>
</g>
<path d="M39 1199C48.8 1161.5 82.9 1137 149.9 1105.2C151 1104.7 152 1104.2 153.1 1103.7C192 1085.4 238.2 1069.1 292.7 1058.2C297.3 1057.3 301.9 1056.4 306.5 1055.6C309.6 1055.1 312.7 1054.5 315.8 1054C317.9 1053.7 319.9 1053.3 322 1053C323.1 1052.8 324.3 1052.7 325.4 1052.5C331.8 1051.5 338.4 1050.7 345 1049.9C353.8 1048.9 362.8 1048 372 1047.2C381.2 1046.5 390.5 1045.9 400.1 1045.4C405.9 1045.2 411.7 1045 417.6 1044.8C423.5 1044.7 429.4 1044.6 435.4 1044.6H435.1C434.8 1044.6 434.4 1044.6 433.9 1044.5H432.9C432.7 1044.5 432.5 1044.5 432.2 1044.4H431.8C430.6 1044.3 429.2 1044.1 427.6 1043.9C427.2 1043.8 426.7 1043.8 426.3 1043.7C425.4 1043.6 424.4 1043.4 423.4 1043.2C423.1 1043.2 422.9 1043.1 422.6 1043.1C422.1 1043 421.6 1042.9 421 1042.8C420.5 1042.7 420 1042.6 419.6 1042.5C418.4 1042.2 417.1 1042 415.8 1041.7C414.7 1041.4 413.7 1041.2 412.6 1040.9C411.8 1040.7 410.9 1040.4 410.1 1040.2C408.7 1039.8 407.3 1039.3 405.8 1038.9C405.2 1038.7 404.6 1038.5 404.1 1038.3C403.5 1038.1 402.9 1037.9 402.3 1037.7C401.7 1037.5 401.1 1037.2 400.5 1037C379.3 1028.5 356.9 1010.7 360.7 973.701C367.8 906.201 474.7 938.101 476.4 938.601C475.2 937.601 416.9 891.901 507.6 834.101C538.2 814.601 585.5 808.101 634.9 808.101H639.5C640.9 808.101 642.3 808.101 643.7 808.201H644.9C646.2 808.201 647.5 808.301 648.8 808.301C650.5 808.301 652.2 808.401 653.9 808.401C654.8 808.401 655.7 808.401 656.6 808.501C660 808.601 663.4 808.801 666.7 808.901C667.5 808.901 668.2 809.001 669 809.001C670 809.001 671 809.101 672.1 809.201C673.7 809.301 675.2 809.401 676.7 809.501C678.2 809.601 679.6 809.701 681.1 809.801H681.5C685.9 810.101 690.2 810.401 694.5 810.801C695.8 810.901 697.1 811.001 698.4 811.101C774.8 818.001 841.2 834.001 841.2 834.001C841.2 834.001 792.3 754.901 861.7 672.701C931.1 590.501 1069.9 628.701 1081.5 667.001C1081.5 667.001 1077.7 633.201 1102.8 612.701C1127.6 592.401 1172.3 612.301 1173.2 612.701C1172.9 611.701 1158.4 559.501 1198.1 513.801C1237.8 468.001 1310.9 489.601 1312 489.901C1311.5 489.301 1290.8 460.301 1307.6 441.001C1324.5 421.401 1355.6 441.001 1355.6 441.001C1355.6 441.001 1333.4 358.201 1386.8 283.501C1440.2 208.701 1568.3 235.301 1568.3 235.301C1568.3 235.301 1555.3 170.001 1606 119.001C1638.81 85.9999 1715.5 21.4999 1814 21.4999C1900 21.4999 1917.17 56.4999 1927.5 74.9999" stroke="#1941B8" stroke-width="4" stroke-linecap="round" stroke-linejoin="round"/>
</g>
<defs>
<filter id="filter0_d_331_14" x="-0.000488281" y="0.499939" width="1942.5" height="1231.5" filterUnits="userSpaceOnUse" color-interpolation-filters="sRGB">
<feFlood flood-opacity="0" result="BackgroundImageFix"/>
<feColorMatrix in="SourceAlpha" type="matrix" values="0 0 0 0 0 0 0 0 0 0 0 0 0 0 0 0 0 0 127 0" result="hardAlpha"/>
<feOffset dx="-12" dy="6"/>
<feGaussianBlur stdDeviation="12.5"/>
<feComposite in2="hardAlpha" operator="out"/>
<feColorMatrix type="matrix" values="0 0 0 0 0.137812 0 0 0 0 0.205868 0 0 0 0 0.408333 0 0 0 0.2 0"/>
<feBlend mode="normal" in2="BackgroundImageFix" result="effect1_dropShadow_331_14"/>
<feBlend mode="normal" in="SourceGraphic" in2="effect1_dropShadow_331_14" result="shape"/>
</filter>
</defs>
</svg>
