<svg width="1544" height="1080" viewBox="0 0 1544 1080" fill="none" xmlns="http://www.w3.org/2000/svg">
<path d="M1562.64 82.71C1562.64 82.71 1510.23 79.45 1491.41 115.98C1491.41 115.98 1490.41 6.75999 1359.3 -4.44001C1228.19 -15.63 1169.45 9.64999 1166.42 76.81C1166.5 75.08 1160.33 71.82 1159.18 71.18C1151.32 66.8 1141.94 65.57 1133.02 65.96C1104.22 67.23 1078.15 83.9 1071.18 111.93C1064.35 139.41 1080.42 164.35 1101.86 181.08C1103.08 182.03 1104.31 182.95 1105.56 183.86C1105.56 183.86 999.467 179.22 971.747 245.55C944.027 311.88 980.347 379.6 1026.71 399.54C1073.07 419.48 1105.85 408.81 1114.64 409.28C1107.55 410.58 1082.55 408.52 1071.15 432.47C1063.17 449.23 1066.85 468.18 1074.49 475.14C1065.69 467.13 1038.72 466.9 1027.93 465.71C839.007 444.98 655.517 616.37 693.417 809.49C693.417 809.49 661.267 741.65 550.757 742.22C440.247 742.79 406.087 846.54 403.677 866.83C401.267 887.12 408.497 917.53 408.497 917.53C408.497 917.53 377.557 880.87 314.057 898.42C289.717 905.15 268.527 918.05 256.537 940.37C240.857 969.54 246.987 1003.63 263.897 1030.88C263.897 1030.88 149.697 1026.75 82.1874 1044.69C14.6774 1062.63 9.04739 1070.82 3.01739 1089.15C-3.01261 1107.48 1561.28 1089.15 1561.28 1089.15L1562.63 82.72L1562.64 82.71Z" fill="#D1D9F1" stroke="#1941B8" stroke-width="4" stroke-linecap="round" stroke-linejoin="round"/>
<path d="M1502.65 705.79C1465.97 711.29 1430.76 725.83 1401.25 747.68C1368.94 771.6 1346.4 807.63 1340.18 846.67C1332.97 891.93 1343.12 939.24 1368.82 976.66C1361.81 973.48 1344.73 969.63 1340.63 969.03C1298.78 962.9 1254.9 975.11 1221.81 1000.48C1217.87 1003.5 1214.07 1006.71 1210.44 1010.08C1203.57 1016.47 1197.29 1023.45 1191.73 1030.94C1186.11 1038.5 1182.56 1045.71 1179.33 1054.32" stroke="#1941B8" stroke-width="4" stroke-linecap="round" stroke-linejoin="round"/>
<path d="M693.417 809.48C693.417 809.48 709.977 831.38 705.307 884.8C705.307 884.8 760.087 840.53 814.307 864.03C874.427 890.08 860.328 954.71 860.328 954.71" stroke="#1941B8" stroke-width="4" stroke-linecap="round" stroke-linejoin="round"/>
<path d="M1383.58 421.15C1383.58 421.15 1261.71 388.38 1211.47 457.92C1161.23 527.46 1211.47 584.2 1211.47 584.2C1211.47 584.2 1183.47 543.44 1117.59 546.64C1051.71 549.84 1032.77 599.39 1031.95 615.38" stroke="#1941B8" stroke-width="4" stroke-linecap="round" stroke-linejoin="round"/>
</svg>
