<svg width="1897" height="1080" viewBox="0 0 1897 1080" fill="none" xmlns="http://www.w3.org/2000/svg">
<g filter="url(#filter0_d_312_57)">
<path d="M1928.9 10V1090H39C48.8 1052.5 82.9 1028 149.9 996.2C151 995.7 152 995.2 153.1 994.7C192 976.4 238.2 960.1 292.7 949.2C297.3 948.3 301.9 947.4 306.5 946.6C309.6 946.1 312.7 945.5 315.8 945C317.9 944.7 319.9 944.3 322 944C323.1 943.8 324.3 943.7 325.4 943.5C331.8 942.5 338.4 941.7 345 940.9C353.8 939.9 362.8 939 372 938.2C381.2 937.5 390.5 936.9 400.1 936.4C405.9 936.2 411.7 936 417.6 935.8C423.5 935.7 429.4 935.6 435.4 935.6H435.1C434.8 935.6 434.4 935.6 433.9 935.5H432.9C432.7 935.5 432.5 935.5 432.2 935.4H431.8C430.6 935.3 429.2 935.1 427.6 934.9C427.2 934.8 426.7 934.8 426.3 934.7C425.4 934.6 424.4 934.4 423.4 934.2C423.1 934.2 422.9 934.1 422.6 934.1C422.1 934 421.6 933.9 421 933.8C420.5 933.7 420 933.6 419.6 933.5C418.4 933.2 417.1 933 415.8 932.7C414.7 932.4 413.7 932.2 412.6 931.9C411.8 931.7 410.9 931.4 410.1 931.2C408.7 930.8 407.3 930.3 405.8 929.9C405.2 929.7 404.6 929.5 404.1 929.3C403.5 929.1 402.9 928.9 402.3 928.7C401.7 928.5 401.1 928.2 400.5 928C379.3 919.5 356.9 901.7 360.7 864.7C367.8 797.2 474.7 829.1 476.4 829.6C475.2 828.6 416.9 782.9 507.6 725.1C538.2 705.6 585.5 699.1 634.9 699.1H639.5C640.9 699.1 642.3 699.1 643.7 699.2H644.9C646.2 699.2 647.5 699.3 648.8 699.3C650.5 699.3 652.2 699.4 653.9 699.4C654.8 699.4 655.7 699.4 656.6 699.5C660 699.6 663.4 699.8 666.7 699.9C667.5 699.9 668.2 700 669 700C670 700 671 700.1 672.1 700.2C673.7 700.3 675.2 700.4 676.7 700.5C678.2 700.6 679.6 700.7 681.1 700.8H681.5C685.9 701.1 690.2 701.4 694.5 701.8C695.8 701.9 697.1 702 698.4 702.1C774.8 709 841.2 725 841.2 725C841.2 725 792.3 645.9 861.7 563.7C931.1 481.5 1069.9 519.7 1081.5 558C1081.5 558 1077.7 524.2 1102.8 503.7C1127.6 483.4 1172.3 503.3 1173.2 503.7C1172.9 502.7 1158.4 450.5 1198.1 404.8C1237.8 359 1310.9 380.6 1312 380.9C1311.5 380.3 1290.8 351.3 1307.6 332C1324.5 312.4 1355.6 332 1355.6 332C1355.6 332 1333.4 249.2 1386.8 174.5C1440.2 99.7 1568.3 126.3 1568.3 126.3C1568.3 126.3 1555.3 61 1606 10L1928.9 10Z" fill="#D1D9F1"/>
<g style="mix-blend-mode:screen" opacity="0.5">
<path d="M505.1 771.2C495.2 793.1 521.9 831 517.8 854.3C513.4 879 452.9 878.7 472 901C476.6 906.4 489.9 916.5 489.5 927.3C488.8 948.4 451.5 961.2 441.8 963.4C398 973.1 305.9 972.7 254.2 979.8C151.6 993.9 61.9 1050.1 39 1090C48.8 1052.5 82.9 1028 149.9 996.2C151 995.7 152 995.2 153.1 994.7C192 976.4 238.2 960.1 292.7 949.2C297.3 948.3 301.9 947.4 306.5 946.6C309.6 946.1 312.7 945.5 315.8 945C317.9 944.7 319.9 944.3 322 944C323.1 943.8 324.3 943.7 325.4 943.5C331.8 942.5 338.4 941.7 345 940.9C353.8 939.9 362.8 939 372 938.2C381.2 937.5 390.5 936.9 400.1 936.4C405.9 936.2 411.7 936 417.6 935.8C423.5 935.7 429.5 935.6 435.5 935.6H435.1C434.8 935.6 434.4 935.6 433.9 935.5H432.9C432.7 935.5 432.5 935.5 432.2 935.4H431.8C430.6 935.3 429.2 935.1 427.6 934.9C427.2 934.8 426.7 934.8 426.3 934.7C425.4 934.6 424.4 934.4 423.4 934.2C423.1 934.2 422.9 934.1 422.6 934.1C422.1 934 421.6 933.9 421 933.8C420.5 933.7 420 933.6 419.6 933.5C418.4 933.3 417.1 933 415.8 932.7C414.7 932.4 413.7 932.2 412.6 931.9C411.8 931.7 410.9 931.4 410.1 931.2C408.7 930.8 407.3 930.3 405.8 929.9C405.2 929.7 404.6 929.5 404.1 929.3C403.5 929.1 402.9 928.9 402.3 928.7C401.7 928.5 401.1 928.2 400.5 928C379.3 919.5 356.9 901.7 360.7 864.7C367.8 797.2 474.7 829.1 476.4 829.6C475.2 828.6 416.9 782.9 507.6 725.1C538.2 705.6 585.5 699.1 634.9 699.1H639.5C640.9 699.1 642.3 699.1 643.7 699.2H644.9C646.2 699.2 647.5 699.3 648.8 699.3C650.5 699.3 652.2 699.4 653.9 699.4C654.8 699.4 655.7 699.4 656.6 699.5C660 699.6 663.4 699.8 666.7 699.9C667.5 699.9 668.2 700 669 700C670 700 671 700.1 672.1 700.2C673.7 700.3 675.2 700.4 676.7 700.5C678.2 700.6 679.6 700.7 681.1 700.8H681.5C685.9 701.1 690.2 701.4 694.5 701.8C695.8 701.9 697.1 702 698.4 702.1C673.5 703.9 648.6 707.3 624.4 712.5C589.7 720.2 521.1 735.5 505.1 771.2V771.2Z" fill="#D1D9F1"/>
</g>
<g style="mix-blend-mode:screen" opacity="0.5">
<path d="M1928.9 10V135.4C1903.5 105 1867 71.4 1819.8 67.8C1736.5 61.4 1686.5 113 1676.9 158.3C1667.7 201.8 1669.4 248.1 1681.1 291C1682.7 296.7 1684.4 302.7 1687.5 307.8C1690.1 312.2 1698.4 316.7 1699.8 320.9C1703.6 332.7 1654.4 325.8 1649 324C1634.5 319.2 1621.4 309.6 1613.8 296.4C1605 281 1604.2 262.4 1605.5 244.8C1606.8 227.2 1610 209.5 1608.3 191.8C1607.7 185.4 1606 178.5 1600.9 174.7C1596.6 171.6 1590.9 171.4 1585.6 171.5C1546.5 172.5 1496.7 183.3 1473.7 218.4C1455.9 245.6 1454.9 287.2 1454.9 318.8C1454.9 330.6 1455.5 342.5 1457.7 354.1C1459.6 364.6 1469.6 378.7 1453.8 377C1433.6 374.9 1414.9 368.4 1394.6 374.1C1377.6 378.9 1364.6 390.7 1358.4 407.2C1333.9 472.4 1285 430.6 1253.5 460.2C1221.9 489.7 1267.8 539.6 1209.7 543.7C1151.6 547.8 1175.1 631.3 1112.9 625.2C1050.8 619.1 989.6 557 933.6 598.7C877.6 640.5 927.5 698.5 889.8 737.2C866.7 761 841.5 785.6 828.2 816.6C821.8 831.4 818.7 847.9 823.8 863.6C828.9 879.1 844.9 884.7 855.5 895.5C864.6 904.7 862.5 908 849.6 909C824.9 910.8 799.6 898.6 781.4 882.6C731.9 839.2 778.7 768.7 802.8 716.8C826.7 721.3 841.6 724.9 841.6 724.9C841.6 724.9 792.7 645.8 862.1 563.6C931.5 481.4 1070.3 519.6 1081.9 557.9C1081.9 557.9 1078.1 524.1 1103.2 503.6C1128 483.3 1172.7 503.2 1173.6 503.6C1173.3 502.6 1158.8 450.4 1198.5 404.7C1238.2 358.9 1311.3 380.5 1312.4 380.8C1311.9 380.2 1291.2 351.2 1308 331.9C1324.9 312.3 1356 331.9 1356 331.9C1356 331.9 1333.8 249.1 1387.2 174.4C1440.6 99.6 1568.7 126.2 1568.7 126.2C1568.7 126.2 1555.3 61 1606 10H1928.9V10Z" fill="#D1D9F1"/>
</g>
<g style="mix-blend-mode:screen" opacity="0.5">
<path d="M1777.3 426.8C1739.6 427.2 1703 444.9 1679.7 474.8C1668.4 489.3 1660.5 506.5 1657.1 524.6C1654.7 537.8 1656.9 551.7 1659.2 564.7C1661 575.2 1661.9 581.2 1648.1 577.7C1626.9 572.4 1605 568.1 1583.2 570.1C1561.4 572.1 1539.4 581.1 1525.8 598.2C1515.6 611.1 1512.1 627.6 1511.3 643.6C1510.6 658.2 1511.6 673 1512.4 687.6C1512.4 688.2 1512.5 688.8 1512.2 689.3C1511.6 690.4 1510.5 689.8 1509.6 689.7C1508.3 689.5 1507 689.3 1505.7 689.1C1500.8 688.4 1495.8 687.8 1490.9 687.6C1480.7 687.2 1470.6 688.5 1461.2 692.5C1445.4 699.2 1432.5 712.6 1427.1 728.9C1424.5 736.6 1423.5 744.8 1420.8 752.4C1413.7 772.4 1391 777.7 1375.8 762C1366.2 752.1 1363.3 737.4 1363.6 723.6C1364.6 686.4 1389.8 650.8 1428.5 646.2C1432.5 645.7 1436.7 645.5 1440.3 643.7C1451 638.2 1447.6 616.1 1448.7 606.4C1450.6 589.7 1453.2 573 1458.1 556.8C1467.8 525 1485.5 498.3 1516.9 485.8C1542.1 475.8 1579.6 469.2 1602 488.9C1602.4 444.5 1637 406.5 1677.4 392.2C1722.8 376.1 1776.2 384.6 1818.1 406.6C1828.6 412.1 1838.8 419.2 1844.4 430C1846.7 434.4 1854.6 454.8 1842.6 448.3C1820.5 436.5 1802.8 426.8 1777.3 426.8V426.8Z" fill="#D1D9F1"/>
</g>
<g style="mix-blend-mode:screen" opacity="0.5">
<path d="M1201.7 719.1C1201.5 719 1201.2 719 1201 718.9C1153.3 705.4 1090.4 699.5 1053.7 740.5C1035.5 760.9 1028.9 792.3 1041.3 816.6C1052.7 838.9 1082.6 849.5 1096.1 822.9C1099.5 816.2 1101.2 808.9 1103.5 801.8C1108.6 786.4 1118 776.4 1134.6 774.3C1151.8 772.1 1168.6 778.1 1185.7 778C1199.2 778 1214 773 1220.2 761C1225.4 751 1227.1 736.3 1218.5 727.6C1214.1 723.1 1207.9 720.8 1201.7 719.1Z" fill="#D1D9F1"/>
</g>
<g style="mix-blend-mode:screen" opacity="0.5">
<path d="M670.9 868.4C669.1 869.8 666.5 869.6 664.1 869.4C608.9 864.7 570.5 910.3 556 959C548.1 985.5 544.7 1025.4 570.3 1043.9C576 1048.1 578.9 1050.2 582.4 1045.1C585.6 1040.3 584.1 1026 584.6 1020.1C585.3 1011.7 586.1 1003.4 587.5 995.1C590.8 975.7 597.2 956.6 609.6 941.1C626.8 919.4 653.3 911 680.1 909.3C693.4 908.4 693.3 884 698.6 873.4C706.6 857.6 717.7 843.6 726 828C727 826.2 727.8 823.9 726.5 822.3C725.4 821 723.5 821.1 721.8 821.3C699.5 824.6 679.8 841.7 673.4 863.3C673 865.1 672.4 867.1 670.9 868.4C670.9 868.3 670.9 868.4 670.9 868.4V868.4Z" fill="#D1D9F1"/>
</g>
<g style="mix-blend-mode:multiply" opacity="0.6">
<path d="M1928.9 1021.6V1090H842.6C844 1088.8 845.5 1087.7 846.9 1086.7C896.9 1051.5 958.6 1033.1 1019.7 1035.3C1040.2 1036 1061.3 1038.9 1080.9 1032.8C1100.5 1026.7 1118.3 1008.1 1114.8 987.8C1111.8 970.3 1094.5 957.7 1092.3 940.1C1136.1 971.5 1192.4 985 1245.7 976.9C1299 968.8 1348.7 939.2 1381.3 896.3C1382.6 919.4 1383.9 943.1 1392.5 964.6C1406.8 1000.8 1440.3 1026.9 1476.9 1040.2C1513.5 1053.5 1553.1 1055.6 1592 1055.2C1672.5 1054.4 1752.6 1043.9 1832.5 1033.4C1859.4 1029.8 1886.7 1023.2 1913.7 1020.8C1919.1 1020.3 1924.2 1020.6 1928.9 1021.6V1021.6Z" fill="#D1D9F1"/>
</g>
<path d="M39 1090C48.8 1052.5 82.9 1028 149.9 996.2C151 995.7 152 995.2 153.1 994.7C192 976.4 238.2 960.1 292.7 949.2C297.3 948.3 301.9 947.4 306.5 946.6C309.6 946.1 312.7 945.5 315.8 945C317.9 944.7 319.9 944.3 322 944C323.1 943.8 324.3 943.7 325.4 943.5C331.8 942.5 338.4 941.7 345 940.9C353.8 939.9 362.8 939 372 938.2C381.2 937.5 390.5 936.9 400.1 936.4C405.9 936.2 411.7 936 417.6 935.8C423.5 935.7 429.4 935.6 435.4 935.6H435.1C434.8 935.6 434.4 935.6 433.9 935.5H432.9C432.7 935.5 432.5 935.5 432.2 935.4H431.8C430.6 935.3 429.2 935.1 427.6 934.9C427.2 934.8 426.7 934.8 426.3 934.7C425.4 934.6 424.4 934.4 423.4 934.2C423.1 934.2 422.9 934.1 422.6 934.1C422.1 934 421.6 933.9 421 933.8C420.5 933.7 420 933.6 419.6 933.5C418.4 933.2 417.1 933 415.8 932.7C414.7 932.4 413.7 932.2 412.6 931.9C411.8 931.7 410.9 931.4 410.1 931.2C408.7 930.8 407.3 930.3 405.8 929.9C405.2 929.7 404.6 929.5 404.1 929.3C403.5 929.1 402.9 928.9 402.3 928.7C401.7 928.5 401.1 928.2 400.5 928C379.3 919.5 356.9 901.7 360.7 864.7C367.8 797.2 474.7 829.1 476.4 829.6C475.2 828.6 416.9 782.9 507.6 725.1C538.2 705.6 585.5 699.1 634.9 699.1H639.5C640.9 699.1 642.3 699.1 643.7 699.2H644.9C646.2 699.2 647.5 699.3 648.8 699.3C650.5 699.3 652.2 699.4 653.9 699.4C654.8 699.4 655.7 699.4 656.6 699.5C660 699.6 663.4 699.8 666.7 699.9C667.5 699.9 668.2 700 669 700C670 700 671 700.1 672.1 700.2C673.7 700.3 675.2 700.4 676.7 700.5C678.2 700.6 679.6 700.7 681.1 700.8H681.5C685.9 701.1 690.2 701.4 694.5 701.8C695.8 701.9 697.1 702 698.4 702.1C774.8 709 841.2 725 841.2 725C841.2 725 792.3 645.9 861.7 563.7C931.1 481.5 1069.9 519.7 1081.5 558C1081.5 558 1077.7 524.2 1102.8 503.7C1127.6 483.4 1172.3 503.3 1173.2 503.7C1172.9 502.7 1158.4 450.5 1198.1 404.8C1237.8 359 1310.9 380.6 1312 380.9C1311.5 380.3 1290.8 351.3 1307.6 332C1324.5 312.4 1355.6 332 1355.6 332C1355.6 332 1333.4 249.2 1386.8 174.5C1440.2 99.7 1568.3 126.3 1568.3 126.3C1568.3 126.3 1555.3 61 1606 10" stroke="#1941B8" stroke-width="4" stroke-linecap="round" stroke-linejoin="round"/>
</g>
<defs>
<filter id="filter0_d_312_57" x="-0.000488281" y="-11" width="1941.9" height="1134" filterUnits="userSpaceOnUse" color-interpolation-filters="sRGB">
<feFlood flood-opacity="0" result="BackgroundImageFix"/>
<feColorMatrix in="SourceAlpha" type="matrix" values="0 0 0 0 0 0 0 0 0 0 0 0 0 0 0 0 0 0 127 0" result="hardAlpha"/>
<feOffset dx="-12" dy="6"/>
<feGaussianBlur stdDeviation="12.5"/>
<feComposite in2="hardAlpha" operator="out"/>
<feColorMatrix type="matrix" values="0 0 0 0 0.137812 0 0 0 0 0.205868 0 0 0 0 0.408333 0 0 0 0.2 0"/>
<feBlend mode="normal" in2="BackgroundImageFix" result="effect1_dropShadow_312_57"/>
<feBlend mode="normal" in="SourceGraphic" in2="effect1_dropShadow_312_57" result="shape"/>
</filter>
</defs>
</svg>
