<svg width="1234" height="1080" viewBox="0 0 1234 1080" fill="none" xmlns="http://www.w3.org/2000/svg">
<path d="M253.59 -21C253.59 -21 268.44 -2.07 268.44 62.54C268.44 62.54 386.59 18.72 475.25 111.24C563.91 203.76 523.44 301.1 523.44 301.1C523.44 301.1 562.95 285.68 577.41 307.85C591.87 330.02 577.41 359.89 577.41 359.89C577.41 359.89 663.18 328.09 710.41 382.06C757.63 436.03 721.01 520.84 721.01 520.84C721.01 520.84 747.99 488.65 802.93 500.41C857.77 512.15 854.98 574.61 854.97 574.8C856.28 546.02 907.04 535.07 928.42 529.96C974.45 518.94 1027.09 523.04 1071.23 540.28C1158.31 574.29 1183.34 673.27 1144.32 754.67C1146.6 749.91 1179.28 755.23 1183.18 756.06C1239.45 767.96 1238.84 831.46 1221.24 874.56C1164.36 1013.84 984.56 1006.37 859.77 1006.91C859.77 1006.91 890.51 1015.58 884.99 1055.78C879.47 1095.98 812.47 1114.9 777.79 1114.9H-21.6299V-21H253.59Z" fill="#D1D9F1" stroke="#1941B8" stroke-width="4" stroke-linecap="round" stroke-linejoin="round"/>
<path d="M268.42 60.57C268.42 60.57 272.18 233.65 171.53 300.43" stroke="#1941B8" stroke-width="4" stroke-linecap="round" stroke-linejoin="round"/>
<path d="M-30 441.83C5.22 389 71.73 375.88 130.62 388.8C190.17 401.86 270.96 448.58 267.24 512.37C275.55 504.07 341.37 517.21 376.81 538.54C412.24 559.87 468.23 637.88 434.68 711.79C434.68 711.79 490.18 704.26 509.93 750.36C529.68 796.46 488.3 851.01 488.3 851.01" stroke="#1941B8" stroke-width="4" stroke-linecap="round" stroke-linejoin="round"/>
<path d="M605.07 822.55C605.07 822.55 666.12 726.38 762.82 763.12C859.52 799.86 827.65 902.51 827.65 902.51C827.65 902.51 847.1 868.47 885.46 877.66C923.82 886.85 916.25 927.9 916.25 927.9" stroke="#1941B8" stroke-width="4" stroke-linecap="round" stroke-linejoin="round"/>
</svg>
