<svg width="881" height="871" viewBox="0 0 881 871" fill="none" xmlns="http://www.w3.org/2000/svg">
<path d="M789.671 658.803C668.485 598.418 213.063 606.574 0.5 618.2V870.672H853.701C886.669 821.045 910.858 719.189 789.671 658.803Z" fill="#1941B8"/>
<path d="M553.04 564.766V629.278C553.04 632.2 554.21 635.033 556.28 637.101L580.806 661.602C587.782 668.57 582.831 680.529 572.976 680.529H359.529C349.629 680.529 344.679 668.57 351.699 661.602L376.225 637.101C378.295 635.033 379.465 632.2 379.465 629.278V564.766" fill="white"/>
<path d="M553.04 564.766V629.278C553.04 632.2 554.21 635.033 556.28 637.101L580.806 661.602C587.782 668.57 582.831 680.529 572.976 680.529H359.529C349.629 680.529 344.679 668.57 351.699 661.602L376.225 637.101C378.295 635.033 379.465 632.2 379.465 629.278V564.766" stroke="#1941B8" stroke-width="3" stroke-linecap="round" stroke-linejoin="round"/>
<path d="M840.605 2H91.9C73.334 2 58.2832 17.0354 58.2832 35.5825V531.183C58.2832 549.73 73.334 564.766 91.9 564.766H840.605C859.171 564.766 874.222 549.73 874.222 531.183V35.5825C874.222 17.0354 859.171 2 840.605 2Z" fill="white" stroke="#1941B8" stroke-width="3" stroke-linecap="round" stroke-linejoin="round"/>
<path d="M58.2832 488.52H874.222" stroke="#1941B8" stroke-width="3" stroke-linecap="round" stroke-linejoin="round"/>
<path d="M835.927 47.001H96.582V455.881H835.927V47.001Z" stroke="#1941B8" stroke-width="3" stroke-linecap="round" stroke-linejoin="round"/>
<path d="M454.484 26.4561H462.495" stroke="#1941B8" stroke-width="3" stroke-linecap="round" stroke-linejoin="round"/>
<path d="M470.91 26.4561H478.066" stroke="#1941B8" stroke-width="3" stroke-linecap="round" stroke-linejoin="round"/>
<rect x="647.559" y="680.812" width="55.1795" height="83.2898" rx="20" fill="white"/>
<line x1="675.086" y1="690.642" x2="675.086" y2="708.464" stroke="#1941B8" stroke-width="3" stroke-linecap="round"/>
<line x1="694.99" y1="707.3" x2="655.304" y2="707.3" stroke="#1941B8" stroke-width="3" stroke-linecap="round"/>
<path d="M144.457 778.537L34.5427 789.353L24.0942 650.565L121.176 641.012L144.457 778.537Z" fill="white" stroke="#1941B8" stroke-width="3" stroke-linecap="round" stroke-linejoin="round"/>
<path d="M152.075 785.748L43.7113 766.005L80.824 630.95L176.536 648.389L152.075 785.748Z" fill="white" stroke="#1941B8" stroke-width="3" stroke-linecap="round" stroke-linejoin="round"/>
<path d="M333.906 660.275L366.881 803.635L220.619 803.139L74.3563 802.644L108.302 659.51L333.906 660.275Z" fill="white" stroke="#1941B8" stroke-width="3" stroke-linecap="round" stroke-linejoin="round"/>
<path d="M221.09 664.054L220.648 794.233C220.648 794.233 241.019 779.367 273.255 780.697C305.49 782.027 359.812 791.761 359.812 791.761L333.9 662.067C333.9 662.067 247.377 640.879 221.09 664.054Z" fill="white" stroke="#1941B8" stroke-width="3" stroke-linecap="round" stroke-linejoin="round"/>
<path d="M221.091 664.054L220.65 794.233C220.65 794.233 200.38 779.229 168.137 780.34C135.893 781.452 81.5061 790.817 81.5061 790.817L108.297 661.302C108.297 661.302 194.962 640.701 221.091 664.054Z" fill="white" stroke="#1941B8" stroke-width="3" stroke-linecap="round" stroke-linejoin="round"/>
<path d="M220.65 794.234C220.65 794.234 173.99 790.629 155.316 792.002C136.642 793.375 89.5371 794.005 81.4886 795.916L81.5059 790.818" fill="white"/>
<path d="M220.65 794.234C220.65 794.234 173.99 790.629 155.316 792.002C136.642 793.375 89.5371 794.005 81.4886 795.916L81.5059 790.818" stroke="#1941B8" stroke-width="3" stroke-linecap="round" stroke-linejoin="round"/>
<path d="M220.648 794.234C220.648 794.234 267.332 790.946 285.996 792.445C304.659 793.944 351.759 794.894 359.795 796.86L359.812 791.762" fill="white"/>
<path d="M220.648 794.234C220.648 794.234 267.332 790.946 285.996 792.445C304.659 793.944 351.759 794.894 359.795 796.86L359.812 791.762" stroke="#1941B8" stroke-width="3" stroke-linecap="round" stroke-linejoin="round"/>
<path d="M239.209 679.195C246.315 679.794 253.293 676.012 260.325 677.328C265.348 678.279 270.004 681.741 275.033 680.753C278.554 680.119 281.508 677.256 285.027 676.981C288.044 676.704 290.839 678.221 293.708 679.165C300.306 681.341 307.49 680.288 314.315 679.306" stroke="#1941B8" stroke-width="3" stroke-linecap="round" stroke-linejoin="round"/>
<path d="M250.181 703.935C254.276 703.374 258.37 702.957 262.464 702.756C263.756 702.688 265.049 702.621 266.341 702.84C267.848 703.133 269.281 703.856 270.716 704.363C275.018 705.957 279.685 706.045 284.209 706.06" stroke="#1941B8" stroke-width="3" stroke-linecap="round" stroke-linejoin="round"/>
<path d="M299.577 705.679C302.235 705.185 304.964 705.123 307.691 705.491C311.28 705.934 315.082 706.952 318.318 705.384" stroke="#1941B8" stroke-width="3" stroke-linecap="round" stroke-linejoin="round"/>
<path d="M247.847 735.015C254.676 732.884 261.863 730.755 268.968 731.928C273.13 732.588 277.145 734.397 281.382 734.411C285.474 734.425 289.429 732.859 293.452 732.154C296.829 731.591 300.347 731.603 303.794 731.615L322.821 731.823" stroke="#1941B8" stroke-width="3" stroke-linecap="round" stroke-linejoin="round"/>
<path d="M246.837 757.917C252.509 757.937 258.192 754.94 263.716 756.323C265.725 756.833 267.588 757.916 269.524 758.712C275.117 760.957 281.365 760.619 287.398 760.209" stroke="#1941B8" stroke-width="3" stroke-linecap="round" stroke-linejoin="round"/>
<path d="M125.029 682.039C133.865 680.633 142.982 681.31 151.518 683.996C155.104 685.085 158.617 686.605 162.352 686.474C167.378 686.347 171.984 683.347 177.012 682.718C182.4 682.09 187.993 684.191 193.097 682.414" stroke="#1941B8" stroke-width="3" stroke-linecap="round" stroke-linejoin="round"/>
<path d="M149.153 704.093C154.972 703.107 161.074 703.559 166.74 705.445C171.904 707.186 176.633 710.074 181.87 711.599C187.106 713.125 193.354 712.859 197.316 709.067" stroke="#1941B8" stroke-width="3" stroke-linecap="round" stroke-linejoin="round"/>
<path d="M122.702 733.155C126.238 728.213 133.42 727.735 139.375 728.976C145.331 730.216 151.21 732.678 157.172 732.052C160.117 731.703 162.849 730.707 165.795 730.214C168.74 729.721 171.898 730.091 174.118 732.037" stroke="#1941B8" stroke-width="3" stroke-linecap="round" stroke-linejoin="round"/>
<path d="M183.088 733.575L192.999 733.035" stroke="#1941B8" stroke-width="3" stroke-linecap="round" stroke-linejoin="round"/>
<path d="M123.986 755.922C133.542 754.088 143.45 754.337 152.921 756.451C160.741 758.273 168.414 761.386 176.457 760.983C183.064 760.646 189.392 757.867 196.071 757.675" stroke="#1941B8" stroke-width="3" stroke-linecap="round" stroke-linejoin="round"/>
<path d="M325.834 755.93L335.01 743.751L431.428 816.403C434.103 818.418 434.219 822.785 431.687 826.144C429.156 829.504 424.926 830.596 422.252 828.581L325.834 755.93Z" fill="white" stroke="#1941B8" stroke-width="3" stroke-linecap="round" stroke-linejoin="round"/>
<path d="M318.661 740.977L326.763 742.309L334.865 743.64L330.277 749.73L325.669 755.845L322.155 748.424L318.661 740.977Z" fill="white" stroke="#1941B8" stroke-width="3" stroke-linecap="round" stroke-linejoin="round"/>
<path d="M320.83 745.618L323.718 741.786" stroke="#1941B8" stroke-width="3" stroke-linecap="round" stroke-linejoin="round"/>
</svg>
