<svg width="5621" height="364" viewBox="0 0 5621 364" fill="none" xmlns="http://www.w3.org/2000/svg">
<g filter="url(#filter0_d_178_14)">
<path d="M5479.34 67.0704C5466.14 73.3179 5438.5 86.2154 5433.53 87.8252C5427.32 89.8374 5385.5 76.543 5377.73 76.6925C5376.88 86.0775 5394.64 98.8891 5394.41 101.449C5394.17 104.008 5389.51 107.883 5393.78 108.274C5398.05 108.665 5458.51 106.46 5464.8 103.594C5471.09 100.729 5499.81 87.8733 5548.41 64.7936C5597.01 41.7138 5616.97 30.6361 5614.1 24.351C5611.23 18.066 5596.41 20.1496 5585.07 21.6927C5576.01 22.9272 5534.15 41.9784 5514.35 51.3496L5442.27 20.6582L5488.26 73.0496M5510.13 97.4216L5526.5 116.127L5537.07 85.2631" stroke="white" stroke-width="4" stroke-linecap="round" stroke-linejoin="round"/>
<path d="M5465 105C5419 153 5160.5 243.122 4999 234.903C4837.5 226.684 4717.5 271 4661 289C4604.5 307 4528.51 314.134 4450.09 279.826C4403.81 259.579 4364.76 186.579 4404.03 143.735C4434.13 110.905 4504.07 122.215 4504.07 171.104C4504.07 200.687 4465.84 223.233 4442.92 234.903C4395.08 259.258 4353.59 256.844 4302.11 249.248C4230.09 238.623 4155.06 224.625 4088.82 194.132C4042.04 172.6 4018.49 132.145 4025.77 82.0121C4029.07 59.3195 4051.5 17.5617 4077.49 8.02063C4116 -6.11575 4154.74 10.9839 4178.66 41.9963C4194.86 62.9952 4180.62 99.9854 4171.11 120.895C4151.56 163.9 4100.39 177.912 4058.62 180.542C4013.43 183.386 3957.85 177.293 3917.62 155.626C3886.1 138.653 3846.66 120.75 3810.59 116.743C3762.5 111.4 3713.27 103.626 3665.06 115.044C3609.21 128.273 3554.91 156.204 3507.08 188.092C3485.1 202.745 3464.88 219.818 3443.28 234.903C3425.16 247.554 3400.63 264.68 3379.48 271.144C3309.82 292.43 3237.52 309.188 3163.92 301.722C3062.05 291.387 2964.86 272.603 2868.33 237.168C2809.11 215.429 2753.31 191.047 2690.9 178.654C2644.74 169.487 2595.55 168.506 2548.77 172.991C2489.69 178.657 2430.14 186.785 2373.04 203.192C2320.81 218.203 2269.23 235.046 2216.76 249.248C2169.92 261.926 2124.59 280.621 2075.76 284.545C1998.63 290.742 1912.96 289.46 1837.74 268.878C1799.61 258.449 1765.97 236.19 1731.85 217.16C1703.4 201.296 1671.69 180.644 1655.02 151.474C1636.06 118.291 1639.57 64.0479 1671.5 42.3842C1685.65 32.7837 1713.35 28.8842 1731.85 47.3842C1763.99 79.5241 1754.02 141.565 1738.45 177.144C1697.78 270.105 1595.88 318.347 1502.89 340.227C1428.43 357.748 1337.1 359.099 1262.79 340.227C1157.18 313.405 1066.18 243.15 974 188.092C539.5 -25 239.288 364.017 6.5 340.227" stroke="white" stroke-width="4" stroke-linecap="round" stroke-dasharray="2 10"/>
</g>
<defs>
<filter id="filter0_d_178_14" x="0.499756" y="1.13403" width="5619.88" height="362.743" filterUnits="userSpaceOnUse" color-interpolation-filters="sRGB">
<feFlood flood-opacity="0" result="BackgroundImageFix"/>
<feColorMatrix in="SourceAlpha" type="matrix" values="0 0 0 0 0 0 0 0 0 0 0 0 0 0 0 0 0 0 127 0" result="hardAlpha"/>
<feOffset dy="4"/>
<feGaussianBlur stdDeviation="2"/>
<feComposite in2="hardAlpha" operator="out"/>
<feColorMatrix type="matrix" values="0 0 0 0 0 0 0 0 0 0 0 0 0 0 0 0 0 0 0.25 0"/>
<feBlend mode="normal" in2="BackgroundImageFix" result="effect1_dropShadow_178_14"/>
<feBlend mode="normal" in="SourceGraphic" in2="effect1_dropShadow_178_14" result="shape"/>
</filter>
</defs>
</svg>
