<svg width="928" height="392" viewBox="0 0 928 392" fill="none" xmlns="http://www.w3.org/2000/svg">
<path d="M735.182 162.031C735.182 162.031 767.812 39.1107 665.372 8.76074C562.942 -21.5893 504.512 57.3207 495.412 105.121C495.412 105.121 453.682 76.2907 424.092 95.2607C394.502 114.231 409.672 173.411 409.672 173.411C409.672 173.411 379.322 132.441 311.032 142.301C242.742 152.161 216.192 240.181 216.192 240.181C216.192 240.181 200.262 203.001 146.382 209.071C92.5116 215.141 78.0916 259.151 82.6416 294.051C82.6416 294.051 24.9716 284.191 7.52165 313.021C-9.92835 341.851 15.8716 357.031 58.3616 365.371C100.852 373.721 392.972 383.581 493.892 383.581C594.802 383.581 842.162 399.511 878.582 380.541C915.002 361.571 926.382 343.361 925.622 310.731C924.862 278.101 910.442 222.711 839.122 233.341C839.122 233.341 859.612 203.751 839.882 163.531C820.152 123.311 754.902 126.351 735.172 162.011L735.182 162.031Z" fill="#D1D9F1" stroke="#1941B8" stroke-width="4" stroke-linecap="round" stroke-linejoin="round"/>
</svg>
