<svg width="738" height="397" viewBox="0 0 738 397" fill="none" xmlns="http://www.w3.org/2000/svg">
<path d="M473.983 57.678C473.983 57.678 435.203 -14.072 354.403 5.32799C273.603 24.728 256.153 84.188 260.683 127.488C260.683 127.488 214.793 110.678 171.483 137.828C128.173 164.978 139.813 221.858 139.813 221.858C139.813 221.858 88.1031 203.118 38.9831 232.848C-10.1369 262.578 -24.3569 351.778 85.5231 380.868C195.403 409.958 594.713 385.838 647.863 377.638C722.393 366.128 733.183 355.658 735.123 331.748C737.063 307.838 687.293 294.258 687.293 294.258C687.293 294.258 700.863 270.338 682.773 236.728C664.683 203.118 616.843 205.058 616.843 205.058C616.843 205.058 647.873 177.908 628.473 133.308C609.073 88.708 547.673 97.758 547.673 97.758C547.673 97.758 554.783 62.858 531.513 49.928C508.243 36.998 473.983 57.688 473.983 57.688V57.678Z" fill="#D1D9F1" stroke="#1941B8" stroke-width="4" stroke-linecap="round" stroke-linejoin="round"/>
</svg>
