<svg width="1920" height="870" viewBox="0 0 1920 870" fill="none" xmlns="http://www.w3.org/2000/svg">
<mask id="mask0_54_448" style="mask-type:alpha" maskUnits="userSpaceOnUse" x="0" y="0" width="1920" height="870">
<rect width="1920" height="870" fill="white"/>
</mask>
<g mask="url(#mask0_54_448)">
<rect x="-124.951" y="-355.951" width="500" height="702.55" rx="18.5" transform="rotate(-30 -124.951 -355.951)" stroke="white" stroke-width="3"/>
<rect x="-69.492" y="-313.907" width="445.987" height="550.638" transform="rotate(-30 -69.492 -313.907)" stroke="white" stroke-width="3"/>
<circle cx="419.106" cy="86.3833" r="27.1946" transform="rotate(-30 419.106 86.3833)" stroke="white" stroke-width="3"/>
<rect x="-391.951" y="220.049" width="500" height="702.55" rx="18.5" transform="rotate(-30 -391.951 220.049)" stroke="white" stroke-width="3"/>
<rect x="-336.492" y="262.093" width="445.987" height="550.638" transform="rotate(-30 -336.492 262.093)" stroke="white" stroke-width="3"/>
<circle cx="152.106" cy="662.383" r="27.1946" transform="rotate(-30 152.106 662.383)" stroke="white" stroke-width="3"/>
<rect x="235.049" y="264.049" width="500" height="702.55" rx="18.5" transform="rotate(-30 235.049 264.049)" stroke="white" stroke-width="3"/>
<rect x="290.508" y="306.093" width="445.987" height="550.638" transform="rotate(-30 290.508 306.093)" stroke="white" stroke-width="3"/>
<circle cx="469.147" cy="166.142" r="8.62752" transform="rotate(-30 469.147 166.142)" stroke="white" stroke-width="3"/>
<circle cx="779.106" cy="706.383" r="27.1946" transform="rotate(-30 779.106 706.383)" stroke="white" stroke-width="3"/>
<rect x="-31.951" y="847.049" width="500" height="702.55" rx="18.5" transform="rotate(-30 -31.951 847.049)" stroke="white" stroke-width="3"/>
<rect x="23.508" y="889.093" width="445.987" height="550.638" transform="rotate(-30 23.508 889.093)" stroke="white" stroke-width="3"/>
<circle cx="202.147" cy="749.142" r="8.62752" transform="rotate(-30 202.147 749.142)" stroke="white" stroke-width="3"/>
<rect x="596.049" y="884.049" width="500" height="702.55" rx="18.5" transform="rotate(-30 596.049 884.049)" stroke="white" stroke-width="3"/>
<rect x="651.508" y="926.093" width="445.987" height="550.638" transform="rotate(-30 651.508 926.093)" stroke="white" stroke-width="3"/>
<circle cx="830.147" cy="786.142" r="8.62752" transform="rotate(-30 830.147 786.142)" stroke="white" stroke-width="3"/>
</g>
</svg>
